<mxfile host="Electron" agent="Mozilla/5.0 (X11; Linux x86_64) AppleWebKit/537.36 (KHTML, like Gecko) draw.io/21.7.5 Chrome/114.0.5735.289 Electron/25.8.1 Safari/537.36" modified="2024-10-12T10:23:18.972Z" etag="AfkkfBRRUchOmcCc90NA" version="21.7.5" type="device">
  <diagram name="Page-1" id="3YMTWpW4_K1TMjsqbu0f">
    <mxGraphModel dx="2524" dy="1873" grid="1" gridSize="10" guides="1" tooltips="1" connect="1" arrows="1" fold="1" page="1" pageScale="1" pageWidth="850" pageHeight="1100" math="0" shadow="0">
      <root>
        <mxCell id="0" />
        <mxCell id="1" parent="0" />
        <mxCell id="iYOvaxKM5K5zUqsuVqts-1" value="&lt;i&gt;Auto&lt;/i&gt;" style="swimlane;fontStyle=1;align=center;verticalAlign=top;childLayout=stackLayout;horizontal=1;startSize=26;horizontalStack=0;resizeParent=1;resizeParentMax=0;resizeLast=0;collapsible=1;marginBottom=0;whiteSpace=wrap;html=1;" parent="1" vertex="1">
          <mxGeometry x="220" y="195" width="160" height="170" as="geometry" />
        </mxCell>
        <mxCell id="iYOvaxKM5K5zUqsuVqts-2" value="-systemen:Systeem&lt;br&gt;-aandrijving:Aandrijving&lt;br&gt;-chassis:Chassis&lt;br&gt;-Wielen:array&amp;lt;Wiel&amp;gt;&lt;br&gt;-carrosserie:Carrosserie&lt;br&gt;-interieur:Interieur" style="text;strokeColor=none;fillColor=none;align=left;verticalAlign=top;spacingLeft=4;spacingRight=4;overflow=hidden;rotatable=0;points=[[0,0.5],[1,0.5]];portConstraint=eastwest;whiteSpace=wrap;html=1;" parent="iYOvaxKM5K5zUqsuVqts-1" vertex="1">
          <mxGeometry y="26" width="160" height="94" as="geometry" />
        </mxCell>
        <mxCell id="iYOvaxKM5K5zUqsuVqts-3" value="" style="line;strokeWidth=1;fillColor=none;align=left;verticalAlign=middle;spacingTop=-1;spacingLeft=3;spacingRight=3;rotatable=0;labelPosition=right;points=[];portConstraint=eastwest;strokeColor=inherit;" parent="iYOvaxKM5K5zUqsuVqts-1" vertex="1">
          <mxGeometry y="120" width="160" height="8" as="geometry" />
        </mxCell>
        <mxCell id="iYOvaxKM5K5zUqsuVqts-4" value="+ start(): void&lt;br&gt;+ schakel(Versnelling): void" style="text;strokeColor=none;fillColor=none;align=left;verticalAlign=top;spacingLeft=4;spacingRight=4;overflow=hidden;rotatable=0;points=[[0,0.5],[1,0.5]];portConstraint=eastwest;whiteSpace=wrap;html=1;" parent="iYOvaxKM5K5zUqsuVqts-1" vertex="1">
          <mxGeometry y="128" width="160" height="42" as="geometry" />
        </mxCell>
        <mxCell id="iYOvaxKM5K5zUqsuVqts-5" value="&lt;i&gt;SysteemFeature&lt;/i&gt;" style="swimlane;fontStyle=1;align=center;verticalAlign=top;childLayout=stackLayout;horizontal=1;startSize=26;horizontalStack=0;resizeParent=1;resizeParentMax=0;resizeLast=0;collapsible=1;marginBottom=0;whiteSpace=wrap;html=1;" parent="1" vertex="1">
          <mxGeometry x="700" y="370" width="220" height="100" as="geometry" />
        </mxCell>
        <mxCell id="iYOvaxKM5K5zUqsuVqts-6" value="-volgende:Systeem" style="text;strokeColor=none;fillColor=none;align=left;verticalAlign=top;spacingLeft=4;spacingRight=4;overflow=hidden;rotatable=0;points=[[0,0.5],[1,0.5]];portConstraint=eastwest;whiteSpace=wrap;html=1;" parent="iYOvaxKM5K5zUqsuVqts-5" vertex="1">
          <mxGeometry y="26" width="220" height="26" as="geometry" />
        </mxCell>
        <mxCell id="iYOvaxKM5K5zUqsuVqts-7" value="" style="line;strokeWidth=1;fillColor=none;align=left;verticalAlign=middle;spacingTop=-1;spacingLeft=3;spacingRight=3;rotatable=0;labelPosition=right;points=[];portConstraint=eastwest;strokeColor=inherit;" parent="iYOvaxKM5K5zUqsuVqts-5" vertex="1">
          <mxGeometry y="52" width="220" height="8" as="geometry" />
        </mxCell>
        <mxCell id="iYOvaxKM5K5zUqsuVqts-8" value="+SysteemFeature(Systeem volgende)&lt;br&gt;+ werk(): void" style="text;strokeColor=none;fillColor=none;align=left;verticalAlign=top;spacingLeft=4;spacingRight=4;overflow=hidden;rotatable=0;points=[[0,0.5],[1,0.5]];portConstraint=eastwest;whiteSpace=wrap;html=1;" parent="iYOvaxKM5K5zUqsuVqts-5" vertex="1">
          <mxGeometry y="60" width="220" height="40" as="geometry" />
        </mxCell>
        <mxCell id="iYOvaxKM5K5zUqsuVqts-13" value="&lt;i&gt;Systeem&lt;/i&gt;" style="swimlane;fontStyle=1;align=center;verticalAlign=top;childLayout=stackLayout;horizontal=1;startSize=26;horizontalStack=0;resizeParent=1;resizeParentMax=0;resizeLast=0;collapsible=1;marginBottom=0;whiteSpace=wrap;html=1;" parent="1" vertex="1">
          <mxGeometry x="620" y="230" width="160" height="60" as="geometry" />
        </mxCell>
        <mxCell id="iYOvaxKM5K5zUqsuVqts-15" value="" style="line;strokeWidth=1;fillColor=none;align=left;verticalAlign=middle;spacingTop=-1;spacingLeft=3;spacingRight=3;rotatable=0;labelPosition=right;points=[];portConstraint=eastwest;strokeColor=inherit;" parent="iYOvaxKM5K5zUqsuVqts-13" vertex="1">
          <mxGeometry y="26" width="160" height="8" as="geometry" />
        </mxCell>
        <mxCell id="iYOvaxKM5K5zUqsuVqts-16" value="+ werk(): void" style="text;strokeColor=none;fillColor=none;align=left;verticalAlign=top;spacingLeft=4;spacingRight=4;overflow=hidden;rotatable=0;points=[[0,0.5],[1,0.5]];portConstraint=eastwest;whiteSpace=wrap;html=1;" parent="iYOvaxKM5K5zUqsuVqts-13" vertex="1">
          <mxGeometry y="34" width="160" height="26" as="geometry" />
        </mxCell>
        <mxCell id="iYOvaxKM5K5zUqsuVqts-17" value="" style="endArrow=block;endSize=16;endFill=0;html=1;rounded=0;exitX=0.5;exitY=0;exitDx=0;exitDy=0;entryX=0.741;entryY=1.042;entryDx=0;entryDy=0;entryPerimeter=0;" parent="1" source="iYOvaxKM5K5zUqsuVqts-5" target="iYOvaxKM5K5zUqsuVqts-16" edge="1">
          <mxGeometry width="160" relative="1" as="geometry">
            <mxPoint x="600" y="270" as="sourcePoint" />
            <mxPoint x="760" y="270" as="targetPoint" />
          </mxGeometry>
        </mxCell>
        <mxCell id="iYOvaxKM5K5zUqsuVqts-18" value="&lt;i&gt;BasisSysteem&lt;/i&gt;" style="swimlane;fontStyle=1;align=center;verticalAlign=top;childLayout=stackLayout;horizontal=1;startSize=26;horizontalStack=0;resizeParent=1;resizeParentMax=0;resizeLast=0;collapsible=1;marginBottom=0;whiteSpace=wrap;html=1;" parent="1" vertex="1">
          <mxGeometry x="520" y="380" width="160" height="60" as="geometry" />
        </mxCell>
        <mxCell id="iYOvaxKM5K5zUqsuVqts-20" value="" style="line;strokeWidth=1;fillColor=none;align=left;verticalAlign=middle;spacingTop=-1;spacingLeft=3;spacingRight=3;rotatable=0;labelPosition=right;points=[];portConstraint=eastwest;strokeColor=inherit;" parent="iYOvaxKM5K5zUqsuVqts-18" vertex="1">
          <mxGeometry y="26" width="160" height="8" as="geometry" />
        </mxCell>
        <mxCell id="iYOvaxKM5K5zUqsuVqts-21" value="+ werk(): void" style="text;strokeColor=none;fillColor=none;align=left;verticalAlign=top;spacingLeft=4;spacingRight=4;overflow=hidden;rotatable=0;points=[[0,0.5],[1,0.5]];portConstraint=eastwest;whiteSpace=wrap;html=1;" parent="iYOvaxKM5K5zUqsuVqts-18" vertex="1">
          <mxGeometry y="34" width="160" height="26" as="geometry" />
        </mxCell>
        <mxCell id="iYOvaxKM5K5zUqsuVqts-22" value="" style="endArrow=diamondThin;endFill=1;endSize=24;html=1;rounded=0;exitX=1;exitY=0.25;exitDx=0;exitDy=0;entryX=0.646;entryY=-0.029;entryDx=0;entryDy=0;entryPerimeter=0;" parent="1" source="iYOvaxKM5K5zUqsuVqts-13" target="iYOvaxKM5K5zUqsuVqts-5" edge="1">
          <mxGeometry width="160" relative="1" as="geometry">
            <mxPoint x="600" y="340" as="sourcePoint" />
            <mxPoint x="850" y="260" as="targetPoint" />
            <Array as="points">
              <mxPoint x="830" y="245" />
            </Array>
          </mxGeometry>
        </mxCell>
        <mxCell id="iYOvaxKM5K5zUqsuVqts-23" value="" style="endArrow=block;endSize=16;endFill=0;html=1;rounded=0;exitX=0.5;exitY=0;exitDx=0;exitDy=0;entryX=0.138;entryY=1.007;entryDx=0;entryDy=0;entryPerimeter=0;" parent="1" source="iYOvaxKM5K5zUqsuVqts-18" target="iYOvaxKM5K5zUqsuVqts-16" edge="1">
          <mxGeometry width="160" relative="1" as="geometry">
            <mxPoint x="641" y="380" as="sourcePoint" />
            <mxPoint x="630" y="301" as="targetPoint" />
          </mxGeometry>
        </mxCell>
        <mxCell id="iYOvaxKM5K5zUqsuVqts-24" value="" style="endArrow=diamondThin;endFill=1;endSize=24;html=1;rounded=0;exitX=0;exitY=0.25;exitDx=0;exitDy=0;entryX=1.007;entryY=0.294;entryDx=0;entryDy=0;entryPerimeter=0;" parent="1" source="iYOvaxKM5K5zUqsuVqts-13" target="iYOvaxKM5K5zUqsuVqts-2" edge="1">
          <mxGeometry width="160" relative="1" as="geometry">
            <mxPoint x="450" y="380" as="sourcePoint" />
            <mxPoint x="590" y="190" as="targetPoint" />
          </mxGeometry>
        </mxCell>
        <mxCell id="iYOvaxKM5K5zUqsuVqts-25" value="&lt;i&gt;VersnellingsBak&lt;/i&gt;" style="swimlane;fontStyle=1;align=center;verticalAlign=top;childLayout=stackLayout;horizontal=1;startSize=26;horizontalStack=0;resizeParent=1;resizeParentMax=0;resizeLast=0;collapsible=1;marginBottom=0;whiteSpace=wrap;html=1;" parent="1" vertex="1">
          <mxGeometry x="90" y="1060.04" width="160" height="60" as="geometry" />
        </mxCell>
        <mxCell id="iYOvaxKM5K5zUqsuVqts-27" value="" style="line;strokeWidth=1;fillColor=none;align=left;verticalAlign=middle;spacingTop=-1;spacingLeft=3;spacingRight=3;rotatable=0;labelPosition=right;points=[];portConstraint=eastwest;strokeColor=inherit;" parent="iYOvaxKM5K5zUqsuVqts-25" vertex="1">
          <mxGeometry y="26" width="160" height="8" as="geometry" />
        </mxCell>
        <mxCell id="iYOvaxKM5K5zUqsuVqts-28" value="+ Schakel(Versnelling):void" style="text;strokeColor=none;fillColor=none;align=left;verticalAlign=top;spacingLeft=4;spacingRight=4;overflow=hidden;rotatable=0;points=[[0,0.5],[1,0.5]];portConstraint=eastwest;whiteSpace=wrap;html=1;" parent="iYOvaxKM5K5zUqsuVqts-25" vertex="1">
          <mxGeometry y="34" width="160" height="26" as="geometry" />
        </mxCell>
        <mxCell id="iYOvaxKM5K5zUqsuVqts-29" value="" style="endArrow=diamondThin;endFill=1;endSize=24;html=1;rounded=0;exitX=0.453;exitY=-0.026;exitDx=0;exitDy=0;exitPerimeter=0;entryX=0.904;entryY=1.118;entryDx=0;entryDy=0;entryPerimeter=0;" parent="1" source="iYOvaxKM5K5zUqsuVqts-25" edge="1">
          <mxGeometry width="160" relative="1" as="geometry">
            <mxPoint x="210" y="970.04" as="sourcePoint" />
            <mxPoint x="144.64" y="889.996" as="targetPoint" />
          </mxGeometry>
        </mxCell>
        <mxCell id="iYOvaxKM5K5zUqsuVqts-30" value="Automaat" style="swimlane;fontStyle=1;align=center;verticalAlign=top;childLayout=stackLayout;horizontal=1;startSize=26;horizontalStack=0;resizeParent=1;resizeParentMax=0;resizeLast=0;collapsible=1;marginBottom=0;whiteSpace=wrap;html=1;" parent="1" vertex="1">
          <mxGeometry x="20" y="1200.04" width="160" height="34" as="geometry" />
        </mxCell>
        <mxCell id="iYOvaxKM5K5zUqsuVqts-32" value="" style="line;strokeWidth=1;fillColor=none;align=left;verticalAlign=middle;spacingTop=-1;spacingLeft=3;spacingRight=3;rotatable=0;labelPosition=right;points=[];portConstraint=eastwest;strokeColor=inherit;" parent="iYOvaxKM5K5zUqsuVqts-30" vertex="1">
          <mxGeometry y="26" width="160" height="8" as="geometry" />
        </mxCell>
        <mxCell id="iYOvaxKM5K5zUqsuVqts-36" value="" style="endArrow=block;endSize=16;endFill=0;html=1;rounded=0;exitX=0.5;exitY=0;exitDx=0;exitDy=0;entryX=0.241;entryY=1.04;entryDx=0;entryDy=0;entryPerimeter=0;" parent="1" source="iYOvaxKM5K5zUqsuVqts-30" target="iYOvaxKM5K5zUqsuVqts-28" edge="1">
          <mxGeometry width="160" relative="1" as="geometry">
            <mxPoint x="360" y="970.04" as="sourcePoint" />
            <mxPoint x="432" y="870.04" as="targetPoint" />
          </mxGeometry>
        </mxCell>
        <mxCell id="iYOvaxKM5K5zUqsuVqts-37" value="Versneller3" style="swimlane;fontStyle=1;align=center;verticalAlign=top;childLayout=stackLayout;horizontal=1;startSize=26;horizontalStack=0;resizeParent=1;resizeParentMax=0;resizeLast=0;collapsible=1;marginBottom=0;whiteSpace=wrap;html=1;" parent="1" vertex="1">
          <mxGeometry x="190" y="1200.04" width="160" height="34" as="geometry" />
        </mxCell>
        <mxCell id="iYOvaxKM5K5zUqsuVqts-38" value="" style="line;strokeWidth=1;fillColor=none;align=left;verticalAlign=middle;spacingTop=-1;spacingLeft=3;spacingRight=3;rotatable=0;labelPosition=right;points=[];portConstraint=eastwest;strokeColor=inherit;" parent="iYOvaxKM5K5zUqsuVqts-37" vertex="1">
          <mxGeometry y="26" width="160" height="8" as="geometry" />
        </mxCell>
        <mxCell id="iYOvaxKM5K5zUqsuVqts-39" value="" style="endArrow=block;endSize=16;endFill=0;html=1;rounded=0;exitX=0.333;exitY=-0.059;exitDx=0;exitDy=0;entryX=0.687;entryY=1.14;entryDx=0;entryDy=0;entryPerimeter=0;exitPerimeter=0;" parent="1" source="iYOvaxKM5K5zUqsuVqts-37" target="iYOvaxKM5K5zUqsuVqts-28" edge="1">
          <mxGeometry width="160" relative="1" as="geometry">
            <mxPoint x="135" y="1190.04" as="sourcePoint" />
            <mxPoint x="199" y="1141.04" as="targetPoint" />
          </mxGeometry>
        </mxCell>
        <mxCell id="iYOvaxKM5K5zUqsuVqts-40" value="Aandrijving" style="swimlane;fontStyle=1;align=center;verticalAlign=top;childLayout=stackLayout;horizontal=1;startSize=26;horizontalStack=0;resizeParent=1;resizeParentMax=0;resizeLast=0;collapsible=1;marginBottom=0;whiteSpace=wrap;html=1;" parent="1" vertex="1">
          <mxGeometry x="560" y="610" width="160" height="128" as="geometry" />
        </mxCell>
        <mxCell id="iYOvaxKM5K5zUqsuVqts-41" value="-tank:EnergieOpslag&amp;nbsp;&lt;br&gt;-motor:Motor" style="text;strokeColor=none;fillColor=none;align=left;verticalAlign=top;spacingLeft=4;spacingRight=4;overflow=hidden;rotatable=0;points=[[0,0.5],[1,0.5]];portConstraint=eastwest;whiteSpace=wrap;html=1;" parent="iYOvaxKM5K5zUqsuVqts-40" vertex="1">
          <mxGeometry y="26" width="160" height="34" as="geometry" />
        </mxCell>
        <mxCell id="iYOvaxKM5K5zUqsuVqts-42" value="" style="line;strokeWidth=1;fillColor=none;align=left;verticalAlign=middle;spacingTop=-1;spacingLeft=3;spacingRight=3;rotatable=0;labelPosition=right;points=[];portConstraint=eastwest;strokeColor=inherit;" parent="iYOvaxKM5K5zUqsuVqts-40" vertex="1">
          <mxGeometry y="60" width="160" height="8" as="geometry" />
        </mxCell>
        <mxCell id="iYOvaxKM5K5zUqsuVqts-43" value="+gas():void&lt;br&gt;+getTankVulProcent():float" style="text;strokeColor=none;fillColor=none;align=left;verticalAlign=top;spacingLeft=4;spacingRight=4;overflow=hidden;rotatable=0;points=[[0,0.5],[1,0.5]];portConstraint=eastwest;whiteSpace=wrap;html=1;" parent="iYOvaxKM5K5zUqsuVqts-40" vertex="1">
          <mxGeometry y="68" width="160" height="60" as="geometry" />
        </mxCell>
        <mxCell id="iYOvaxKM5K5zUqsuVqts-44" value="" style="endArrow=diamondThin;endFill=1;endSize=24;html=1;rounded=0;entryX=0.999;entryY=0.74;entryDx=0;entryDy=0;entryPerimeter=0;exitX=0.206;exitY=-0.046;exitDx=0;exitDy=0;exitPerimeter=0;" parent="1" source="iYOvaxKM5K5zUqsuVqts-40" target="iYOvaxKM5K5zUqsuVqts-4" edge="1">
          <mxGeometry width="160" relative="1" as="geometry">
            <mxPoint x="530" y="530" as="sourcePoint" />
            <mxPoint x="690" y="530" as="targetPoint" />
          </mxGeometry>
        </mxCell>
        <mxCell id="iYOvaxKM5K5zUqsuVqts-45" value="dit weet ik niet zo zeker" style="text;html=1;strokeColor=none;fillColor=none;align=center;verticalAlign=middle;whiteSpace=wrap;rounded=0;" parent="1" vertex="1">
          <mxGeometry x="160" y="1020" width="130" height="30" as="geometry" />
        </mxCell>
        <mxCell id="iYOvaxKM5K5zUqsuVqts-46" value="&lt;i&gt;AanDrijvingSelectie&lt;/i&gt;" style="swimlane;fontStyle=1;align=center;verticalAlign=top;childLayout=stackLayout;horizontal=1;startSize=26;horizontalStack=0;resizeParent=1;resizeParentMax=0;resizeLast=0;collapsible=1;marginBottom=0;whiteSpace=wrap;html=1;" parent="1" vertex="1">
          <mxGeometry x="-70" y="400" width="200" height="80" as="geometry" />
        </mxCell>
        <mxCell id="iYOvaxKM5K5zUqsuVqts-48" value="" style="line;strokeWidth=1;fillColor=none;align=left;verticalAlign=middle;spacingTop=-1;spacingLeft=3;spacingRight=3;rotatable=0;labelPosition=right;points=[];portConstraint=eastwest;strokeColor=inherit;" parent="iYOvaxKM5K5zUqsuVqts-46" vertex="1">
          <mxGeometry y="26" width="200" height="8" as="geometry" />
        </mxCell>
        <mxCell id="iYOvaxKM5K5zUqsuVqts-49" value="+ProduceerMotor():Motor&lt;br&gt;+ProduceerTank():EnergieOpslag" style="text;strokeColor=none;fillColor=none;align=left;verticalAlign=top;spacingLeft=4;spacingRight=4;overflow=hidden;rotatable=0;points=[[0,0.5],[1,0.5]];portConstraint=eastwest;whiteSpace=wrap;html=1;" parent="iYOvaxKM5K5zUqsuVqts-46" vertex="1">
          <mxGeometry y="34" width="200" height="46" as="geometry" />
        </mxCell>
        <mxCell id="iYOvaxKM5K5zUqsuVqts-50" value="Radio" style="swimlane;fontStyle=1;align=center;verticalAlign=top;childLayout=stackLayout;horizontal=1;startSize=26;horizontalStack=0;resizeParent=1;resizeParentMax=0;resizeLast=0;collapsible=1;marginBottom=0;whiteSpace=wrap;html=1;" parent="1" vertex="1">
          <mxGeometry x="940" y="533" width="160" height="34" as="geometry" />
        </mxCell>
        <mxCell id="iYOvaxKM5K5zUqsuVqts-52" value="" style="line;strokeWidth=1;fillColor=none;align=left;verticalAlign=middle;spacingTop=-1;spacingLeft=3;spacingRight=3;rotatable=0;labelPosition=right;points=[];portConstraint=eastwest;strokeColor=inherit;" parent="iYOvaxKM5K5zUqsuVqts-50" vertex="1">
          <mxGeometry y="26" width="160" height="8" as="geometry" />
        </mxCell>
        <mxCell id="iYOvaxKM5K5zUqsuVqts-54" value="" style="endArrow=block;endSize=16;endFill=0;html=1;rounded=0;exitX=0.25;exitY=0;exitDx=0;exitDy=0;entryX=0.867;entryY=1.163;entryDx=0;entryDy=0;entryPerimeter=0;" parent="1" source="iYOvaxKM5K5zUqsuVqts-50" target="iYOvaxKM5K5zUqsuVqts-8" edge="1">
          <mxGeometry width="160" relative="1" as="geometry">
            <mxPoint x="820" y="380" as="sourcePoint" />
            <mxPoint x="749" y="301" as="targetPoint" />
          </mxGeometry>
        </mxCell>
        <mxCell id="iYOvaxKM5K5zUqsuVqts-55" value="SnelheidsMeter" style="swimlane;fontStyle=1;align=center;verticalAlign=top;childLayout=stackLayout;horizontal=1;startSize=26;horizontalStack=0;resizeParent=1;resizeParentMax=0;resizeLast=0;collapsible=1;marginBottom=0;whiteSpace=wrap;html=1;" parent="1" vertex="1">
          <mxGeometry x="800" y="586" width="160" height="34" as="geometry" />
        </mxCell>
        <mxCell id="iYOvaxKM5K5zUqsuVqts-56" value="" style="line;strokeWidth=1;fillColor=none;align=left;verticalAlign=middle;spacingTop=-1;spacingLeft=3;spacingRight=3;rotatable=0;labelPosition=right;points=[];portConstraint=eastwest;strokeColor=inherit;" parent="iYOvaxKM5K5zUqsuVqts-55" vertex="1">
          <mxGeometry y="26" width="160" height="8" as="geometry" />
        </mxCell>
        <mxCell id="iYOvaxKM5K5zUqsuVqts-57" value="" style="endArrow=block;endSize=16;endFill=0;html=1;rounded=0;exitX=0.419;exitY=0.015;exitDx=0;exitDy=0;entryX=0.606;entryY=1.131;entryDx=0;entryDy=0;entryPerimeter=0;exitPerimeter=0;" parent="1" source="iYOvaxKM5K5zUqsuVqts-55" target="iYOvaxKM5K5zUqsuVqts-8" edge="1">
          <mxGeometry width="160" relative="1" as="geometry">
            <mxPoint x="830" y="390" as="sourcePoint" />
            <mxPoint x="930" y="397" as="targetPoint" />
          </mxGeometry>
        </mxCell>
        <mxCell id="iYOvaxKM5K5zUqsuVqts-58" value="ParkeerSensoren" style="swimlane;fontStyle=1;align=center;verticalAlign=top;childLayout=stackLayout;horizontal=1;startSize=26;horizontalStack=0;resizeParent=1;resizeParentMax=0;resizeLast=0;collapsible=1;marginBottom=0;whiteSpace=wrap;html=1;" parent="1" vertex="1">
          <mxGeometry x="670" y="533" width="160" height="34" as="geometry" />
        </mxCell>
        <mxCell id="iYOvaxKM5K5zUqsuVqts-59" value="" style="line;strokeWidth=1;fillColor=none;align=left;verticalAlign=middle;spacingTop=-1;spacingLeft=3;spacingRight=3;rotatable=0;labelPosition=right;points=[];portConstraint=eastwest;strokeColor=inherit;" parent="iYOvaxKM5K5zUqsuVqts-58" vertex="1">
          <mxGeometry y="26" width="160" height="8" as="geometry" />
        </mxCell>
        <mxCell id="iYOvaxKM5K5zUqsuVqts-60" value="" style="endArrow=block;endSize=16;endFill=0;html=1;rounded=0;exitX=0.439;exitY=0.007;exitDx=0;exitDy=0;entryX=0.197;entryY=1.1;entryDx=0;entryDy=0;entryPerimeter=0;exitPerimeter=0;" parent="1" source="iYOvaxKM5K5zUqsuVqts-58" target="iYOvaxKM5K5zUqsuVqts-8" edge="1">
          <mxGeometry width="160" relative="1" as="geometry">
            <mxPoint x="799.18" y="569" as="sourcePoint" />
            <mxPoint x="689.9999999999997" y="500" as="targetPoint" />
          </mxGeometry>
        </mxCell>
        <mxCell id="iYOvaxKM5K5zUqsuVqts-61" value="autofabriek" style="swimlane;fontStyle=1;align=center;verticalAlign=top;childLayout=stackLayout;horizontal=1;startSize=26;horizontalStack=0;resizeParent=1;resizeParentMax=0;resizeLast=0;collapsible=1;marginBottom=0;whiteSpace=wrap;html=1;" parent="1" vertex="1">
          <mxGeometry x="-70" y="60" width="160" height="130" as="geometry" />
        </mxCell>
        <mxCell id="iYOvaxKM5K5zUqsuVqts-63" value="" style="line;strokeWidth=1;fillColor=none;align=left;verticalAlign=middle;spacingTop=-1;spacingLeft=3;spacingRight=3;rotatable=0;labelPosition=right;points=[];portConstraint=eastwest;strokeColor=inherit;" parent="iYOvaxKM5K5zUqsuVqts-61" vertex="1">
          <mxGeometry y="26" width="160" height="104" as="geometry" />
        </mxCell>
        <mxCell id="iYOvaxKM5K5zUqsuVqts-65" value="Use" style="endArrow=open;endSize=12;dashed=1;html=1;rounded=0;exitX=-0.012;exitY=0.648;exitDx=0;exitDy=0;entryX=0.5;entryY=0;entryDx=0;entryDy=0;exitPerimeter=0;" parent="1" source="RK9ggco8I1LgHWCDBa7s-4" target="iYOvaxKM5K5zUqsuVqts-46" edge="1">
          <mxGeometry width="160" relative="1" as="geometry">
            <mxPoint x="62" y="219.2460000000001" as="sourcePoint" />
            <mxPoint x="290" y="480" as="targetPoint" />
          </mxGeometry>
        </mxCell>
        <mxCell id="iYOvaxKM5K5zUqsuVqts-67" value="&lt;i&gt;EnergieOpslag&lt;/i&gt;" style="swimlane;fontStyle=1;align=center;verticalAlign=top;childLayout=stackLayout;horizontal=1;startSize=26;horizontalStack=0;resizeParent=1;resizeParentMax=0;resizeLast=0;collapsible=1;marginBottom=0;whiteSpace=wrap;html=1;" parent="1" vertex="1">
          <mxGeometry x="160" y="524" width="160" height="120" as="geometry" />
        </mxCell>
        <mxCell id="iYOvaxKM5K5zUqsuVqts-68" value="- vulProcent: float" style="text;strokeColor=none;fillColor=none;align=left;verticalAlign=top;spacingLeft=4;spacingRight=4;overflow=hidden;rotatable=0;points=[[0,0.5],[1,0.5]];portConstraint=eastwest;whiteSpace=wrap;html=1;" parent="iYOvaxKM5K5zUqsuVqts-67" vertex="1">
          <mxGeometry y="26" width="160" height="26" as="geometry" />
        </mxCell>
        <mxCell id="iYOvaxKM5K5zUqsuVqts-69" value="" style="line;strokeWidth=1;fillColor=none;align=left;verticalAlign=middle;spacingTop=-1;spacingLeft=3;spacingRight=3;rotatable=0;labelPosition=right;points=[];portConstraint=eastwest;strokeColor=inherit;" parent="iYOvaxKM5K5zUqsuVqts-67" vertex="1">
          <mxGeometry y="52" width="160" height="8" as="geometry" />
        </mxCell>
        <mxCell id="iYOvaxKM5K5zUqsuVqts-70" value="+verbruik(float);float&lt;br&gt;+vul(float):void&lt;br&gt;+getvulProcent():float" style="text;strokeColor=none;fillColor=none;align=left;verticalAlign=top;spacingLeft=4;spacingRight=4;overflow=hidden;rotatable=0;points=[[0,0.5],[1,0.5]];portConstraint=eastwest;whiteSpace=wrap;html=1;" parent="iYOvaxKM5K5zUqsuVqts-67" vertex="1">
          <mxGeometry y="60" width="160" height="60" as="geometry" />
        </mxCell>
        <mxCell id="iYOvaxKM5K5zUqsuVqts-71" value="Maakt" style="endArrow=open;endSize=12;dashed=1;html=1;rounded=0;exitX=1.016;exitY=0.19;exitDx=0;exitDy=0;exitPerimeter=0;entryX=0.403;entryY=0.01;entryDx=0;entryDy=0;entryPerimeter=0;" parent="1" source="iYOvaxKM5K5zUqsuVqts-49" target="iYOvaxKM5K5zUqsuVqts-67" edge="1">
          <mxGeometry width="160" relative="1" as="geometry">
            <mxPoint x="210" y="640" as="sourcePoint" />
            <mxPoint x="370" y="640" as="targetPoint" />
            <Array as="points" />
          </mxGeometry>
        </mxCell>
        <mxCell id="iYOvaxKM5K5zUqsuVqts-72" value="&lt;i&gt;Motor&lt;/i&gt;" style="swimlane;fontStyle=1;align=center;verticalAlign=top;childLayout=stackLayout;horizontal=1;startSize=26;horizontalStack=0;resizeParent=1;resizeParentMax=0;resizeLast=0;collapsible=1;marginBottom=0;whiteSpace=wrap;html=1;" parent="1" vertex="1">
          <mxGeometry x="-200" y="537" width="160" height="94" as="geometry" />
        </mxCell>
        <mxCell id="iYOvaxKM5K5zUqsuVqts-73" value="-rpm:float&lt;br&gt;-maxRpm:float" style="text;strokeColor=none;fillColor=none;align=left;verticalAlign=top;spacingLeft=4;spacingRight=4;overflow=hidden;rotatable=0;points=[[0,0.5],[1,0.5]];portConstraint=eastwest;whiteSpace=wrap;html=1;" parent="iYOvaxKM5K5zUqsuVqts-72" vertex="1">
          <mxGeometry y="26" width="160" height="34" as="geometry" />
        </mxCell>
        <mxCell id="iYOvaxKM5K5zUqsuVqts-74" value="" style="line;strokeWidth=1;fillColor=none;align=left;verticalAlign=middle;spacingTop=-1;spacingLeft=3;spacingRight=3;rotatable=0;labelPosition=right;points=[];portConstraint=eastwest;strokeColor=inherit;" parent="iYOvaxKM5K5zUqsuVqts-72" vertex="1">
          <mxGeometry y="60" width="160" height="8" as="geometry" />
        </mxCell>
        <mxCell id="iYOvaxKM5K5zUqsuVqts-75" value="+ gas():void" style="text;strokeColor=none;fillColor=none;align=left;verticalAlign=top;spacingLeft=4;spacingRight=4;overflow=hidden;rotatable=0;points=[[0,0.5],[1,0.5]];portConstraint=eastwest;whiteSpace=wrap;html=1;" parent="iYOvaxKM5K5zUqsuVqts-72" vertex="1">
          <mxGeometry y="68" width="160" height="26" as="geometry" />
        </mxCell>
        <mxCell id="iYOvaxKM5K5zUqsuVqts-76" value="Maakt" style="endArrow=open;endSize=12;dashed=1;html=1;rounded=0;exitX=0.004;exitY=0.299;exitDx=0;exitDy=0;exitPerimeter=0;entryX=0.387;entryY=0.005;entryDx=0;entryDy=0;entryPerimeter=0;" parent="1" source="iYOvaxKM5K5zUqsuVqts-49" target="iYOvaxKM5K5zUqsuVqts-72" edge="1">
          <mxGeometry width="160" relative="1" as="geometry">
            <mxPoint x="143" y="473" as="sourcePoint" />
            <mxPoint x="254" y="535" as="targetPoint" />
            <Array as="points" />
          </mxGeometry>
        </mxCell>
        <mxCell id="iYOvaxKM5K5zUqsuVqts-77" value="ElektrischeAandrijvingSelectie" style="swimlane;fontStyle=1;align=center;verticalAlign=top;childLayout=stackLayout;horizontal=1;startSize=26;horizontalStack=0;resizeParent=1;resizeParentMax=0;resizeLast=0;collapsible=1;marginBottom=0;whiteSpace=wrap;html=1;" parent="1" vertex="1">
          <mxGeometry x="-60" y="690" width="180" height="34" as="geometry" />
        </mxCell>
        <mxCell id="iYOvaxKM5K5zUqsuVqts-79" value="" style="line;strokeWidth=1;fillColor=none;align=left;verticalAlign=middle;spacingTop=-1;spacingLeft=3;spacingRight=3;rotatable=0;labelPosition=right;points=[];portConstraint=eastwest;strokeColor=inherit;" parent="iYOvaxKM5K5zUqsuVqts-77" vertex="1">
          <mxGeometry y="26" width="180" height="8" as="geometry" />
        </mxCell>
        <mxCell id="iYOvaxKM5K5zUqsuVqts-81" value="" style="endArrow=block;endSize=16;endFill=0;html=1;rounded=0;entryX=0.529;entryY=1.114;entryDx=0;entryDy=0;entryPerimeter=0;exitX=0.5;exitY=0;exitDx=0;exitDy=0;" parent="1" source="iYOvaxKM5K5zUqsuVqts-77" target="iYOvaxKM5K5zUqsuVqts-49" edge="1">
          <mxGeometry width="160" relative="1" as="geometry">
            <mxPoint x="-30" y="800" as="sourcePoint" />
            <mxPoint x="130" y="800" as="targetPoint" />
          </mxGeometry>
        </mxCell>
        <mxCell id="iYOvaxKM5K5zUqsuVqts-82" value="ElektroMotor" style="swimlane;fontStyle=1;align=center;verticalAlign=top;childLayout=stackLayout;horizontal=1;startSize=26;horizontalStack=0;resizeParent=1;resizeParentMax=0;resizeLast=0;collapsible=1;marginBottom=0;whiteSpace=wrap;html=1;" parent="1" vertex="1">
          <mxGeometry x="-290" y="690" width="160" height="34" as="geometry" />
        </mxCell>
        <mxCell id="iYOvaxKM5K5zUqsuVqts-84" value="" style="line;strokeWidth=1;fillColor=none;align=left;verticalAlign=middle;spacingTop=-1;spacingLeft=3;spacingRight=3;rotatable=0;labelPosition=right;points=[];portConstraint=eastwest;strokeColor=inherit;" parent="iYOvaxKM5K5zUqsuVqts-82" vertex="1">
          <mxGeometry y="26" width="160" height="8" as="geometry" />
        </mxCell>
        <mxCell id="iYOvaxKM5K5zUqsuVqts-86" value="" style="endArrow=diamondThin;endFill=1;endSize=24;html=1;rounded=0;entryX=0;entryY=0.5;entryDx=0;entryDy=0;exitX=1;exitY=0.5;exitDx=0;exitDy=0;" parent="1" source="iYOvaxKM5K5zUqsuVqts-75" target="iYOvaxKM5K5zUqsuVqts-43" edge="1">
          <mxGeometry width="160" relative="1" as="geometry">
            <mxPoint x="150" y="720" as="sourcePoint" />
            <mxPoint x="310" y="720" as="targetPoint" />
          </mxGeometry>
        </mxCell>
        <mxCell id="iYOvaxKM5K5zUqsuVqts-87" value="" style="endArrow=diamondThin;endFill=1;endSize=24;html=1;rounded=0;entryX=0;entryY=0.5;entryDx=0;entryDy=0;exitX=1;exitY=0.5;exitDx=0;exitDy=0;" parent="1" source="iYOvaxKM5K5zUqsuVqts-70" target="iYOvaxKM5K5zUqsuVqts-41" edge="1">
          <mxGeometry width="160" relative="1" as="geometry">
            <mxPoint x="-30" y="641" as="sourcePoint" />
            <mxPoint x="568" y="674" as="targetPoint" />
          </mxGeometry>
        </mxCell>
        <mxCell id="iYOvaxKM5K5zUqsuVqts-89" value="" style="endArrow=block;endSize=16;endFill=0;html=1;rounded=0;entryX=0.458;entryY=1.115;entryDx=0;entryDy=0;entryPerimeter=0;exitX=0.5;exitY=0;exitDx=0;exitDy=0;" parent="1" source="iYOvaxKM5K5zUqsuVqts-82" target="iYOvaxKM5K5zUqsuVqts-75" edge="1">
          <mxGeometry width="160" relative="1" as="geometry">
            <mxPoint x="60" y="700" as="sourcePoint" />
            <mxPoint x="66" y="505" as="targetPoint" />
          </mxGeometry>
        </mxCell>
        <mxCell id="iYOvaxKM5K5zUqsuVqts-90" value="Accu" style="swimlane;fontStyle=1;align=center;verticalAlign=top;childLayout=stackLayout;horizontal=1;startSize=26;horizontalStack=0;resizeParent=1;resizeParentMax=0;resizeLast=0;collapsible=1;marginBottom=0;whiteSpace=wrap;html=1;" parent="1" vertex="1">
          <mxGeometry x="200" y="690" width="160" height="34" as="geometry" />
        </mxCell>
        <mxCell id="iYOvaxKM5K5zUqsuVqts-91" value="" style="line;strokeWidth=1;fillColor=none;align=left;verticalAlign=middle;spacingTop=-1;spacingLeft=3;spacingRight=3;rotatable=0;labelPosition=right;points=[];portConstraint=eastwest;strokeColor=inherit;" parent="iYOvaxKM5K5zUqsuVqts-90" vertex="1">
          <mxGeometry y="26" width="160" height="8" as="geometry" />
        </mxCell>
        <mxCell id="iYOvaxKM5K5zUqsuVqts-92" value="" style="endArrow=block;endSize=16;endFill=0;html=1;rounded=0;entryX=0.567;entryY=1.042;entryDx=0;entryDy=0;entryPerimeter=0;exitX=0.5;exitY=0;exitDx=0;exitDy=0;" parent="1" source="iYOvaxKM5K5zUqsuVqts-90" target="iYOvaxKM5K5zUqsuVqts-70" edge="1">
          <mxGeometry width="160" relative="1" as="geometry">
            <mxPoint x="-130" y="760" as="sourcePoint" />
            <mxPoint x="-117" y="644" as="targetPoint" />
          </mxGeometry>
        </mxCell>
        <mxCell id="iYOvaxKM5K5zUqsuVqts-93" value="produceert" style="endArrow=open;endSize=12;dashed=1;html=1;rounded=0;exitX=1;exitY=0.5;exitDx=0;exitDy=0;entryX=-0.027;entryY=0.097;entryDx=0;entryDy=0;entryPerimeter=0;" parent="1" source="iYOvaxKM5K5zUqsuVqts-61" target="iYOvaxKM5K5zUqsuVqts-2" edge="1">
          <mxGeometry width="160" relative="1" as="geometry">
            <mxPoint x="40" y="204" as="sourcePoint" />
            <mxPoint x="60" y="420" as="targetPoint" />
          </mxGeometry>
        </mxCell>
        <mxCell id="iYOvaxKM5K5zUqsuVqts-94" value="Maakt" style="endArrow=open;endSize=12;dashed=1;html=1;rounded=0;exitX=0;exitY=0.5;exitDx=0;exitDy=0;entryX=1;entryY=0.5;entryDx=0;entryDy=0;" parent="1" source="iYOvaxKM5K5zUqsuVqts-77" target="iYOvaxKM5K5zUqsuVqts-82" edge="1">
          <mxGeometry width="160" relative="1" as="geometry">
            <mxPoint x="120" y="187" as="sourcePoint" />
            <mxPoint x="226" y="235" as="targetPoint" />
          </mxGeometry>
        </mxCell>
        <mxCell id="iYOvaxKM5K5zUqsuVqts-95" value="Maakt" style="endArrow=open;endSize=12;dashed=1;html=1;rounded=0;exitX=1;exitY=0.5;exitDx=0;exitDy=0;entryX=0;entryY=0.5;entryDx=0;entryDy=0;" parent="1" source="iYOvaxKM5K5zUqsuVqts-77" target="iYOvaxKM5K5zUqsuVqts-90" edge="1">
          <mxGeometry width="160" relative="1" as="geometry">
            <mxPoint x="-30" y="717" as="sourcePoint" />
            <mxPoint x="-70" y="717" as="targetPoint" />
          </mxGeometry>
        </mxCell>
        <mxCell id="RK9ggco8I1LgHWCDBa7s-1" value="&lt;i&gt;ProductieLijn&lt;/i&gt;" style="swimlane;fontStyle=1;align=center;verticalAlign=top;childLayout=stackLayout;horizontal=1;startSize=26;horizontalStack=0;resizeParent=1;resizeParentMax=0;resizeLast=0;collapsible=1;marginBottom=0;whiteSpace=wrap;html=1;" vertex="1" parent="1">
          <mxGeometry x="410" y="-110" width="330" height="220" as="geometry" />
        </mxCell>
        <mxCell id="RK9ggco8I1LgHWCDBa7s-2" value="-gebouwdeAuto:auto&lt;br&gt;-compleetStatus:bool" style="text;strokeColor=none;fillColor=none;align=left;verticalAlign=top;spacingLeft=4;spacingRight=4;overflow=hidden;rotatable=0;points=[[0,0.5],[1,0.5]];portConstraint=eastwest;whiteSpace=wrap;html=1;" vertex="1" parent="RK9ggco8I1LgHWCDBa7s-1">
          <mxGeometry y="26" width="330" height="44" as="geometry" />
        </mxCell>
        <mxCell id="RK9ggco8I1LgHWCDBa7s-3" value="" style="line;strokeWidth=1;fillColor=none;align=left;verticalAlign=middle;spacingTop=-1;spacingLeft=3;spacingRight=3;rotatable=0;labelPosition=right;points=[];portConstraint=eastwest;strokeColor=inherit;" vertex="1" parent="RK9ggco8I1LgHWCDBa7s-1">
          <mxGeometry y="70" width="330" height="8" as="geometry" />
        </mxCell>
        <mxCell id="RK9ggco8I1LgHWCDBa7s-4" value="+autoStatus():String&lt;br&gt;+selecteerChassis(String type):ProductieLijn&lt;br&gt;+installeerAandrijving(String type):Productielijn&lt;br&gt;+InstalleerSystemen(List&amp;lt;String&amp;gt; features):ProductieLijn&lt;br&gt;+BevestigWielen(String type):ProductieLijn&lt;br&gt;+BevestigCarroserie(String type):ProductieLijn&lt;br&gt;+VerfCarroserie(coatingSpecificatie spec):ProductieLijn&lt;br&gt;+InstalleerInterieur(InterireurSpec spec):ProductieLijn&lt;br&gt;+lever():auto" style="text;strokeColor=none;fillColor=none;align=left;verticalAlign=top;spacingLeft=4;spacingRight=4;overflow=hidden;rotatable=0;points=[[0,0.5],[1,0.5]];portConstraint=eastwest;whiteSpace=wrap;html=1;" vertex="1" parent="RK9ggco8I1LgHWCDBa7s-1">
          <mxGeometry y="78" width="330" height="142" as="geometry" />
        </mxCell>
        <mxCell id="RK9ggco8I1LgHWCDBa7s-5" value="Gebruikt" style="endArrow=open;endSize=12;dashed=1;html=1;rounded=0;exitX=0.956;exitY=0.088;exitDx=0;exitDy=0;exitPerimeter=0;entryX=-0.003;entryY=0.359;entryDx=0;entryDy=0;entryPerimeter=0;" edge="1" parent="1" source="iYOvaxKM5K5zUqsuVqts-61" target="RK9ggco8I1LgHWCDBa7s-4">
          <mxGeometry width="160" relative="1" as="geometry">
            <mxPoint x="520" y="270" as="sourcePoint" />
            <mxPoint x="680" y="270" as="targetPoint" />
          </mxGeometry>
        </mxCell>
        <mxCell id="RK9ggco8I1LgHWCDBa7s-6" value="Maakt" style="endArrow=open;endSize=12;dashed=1;html=1;rounded=0;exitX=0.239;exitY=1.014;exitDx=0;exitDy=0;exitPerimeter=0;entryX=0.75;entryY=0;entryDx=0;entryDy=0;" edge="1" parent="1" source="RK9ggco8I1LgHWCDBa7s-4" target="iYOvaxKM5K5zUqsuVqts-1">
          <mxGeometry width="160" relative="1" as="geometry">
            <mxPoint x="520" y="270" as="sourcePoint" />
            <mxPoint x="680" y="270" as="targetPoint" />
          </mxGeometry>
        </mxCell>
        <mxCell id="RK9ggco8I1LgHWCDBa7s-7" value="dealer" style="swimlane;fontStyle=1;align=center;verticalAlign=top;childLayout=stackLayout;horizontal=1;startSize=26;horizontalStack=0;resizeParent=1;resizeParentMax=0;resizeLast=0;collapsible=1;marginBottom=0;whiteSpace=wrap;html=1;" vertex="1" parent="1">
          <mxGeometry x="-470" y="110" width="280" height="128" as="geometry" />
        </mxCell>
        <mxCell id="RK9ggco8I1LgHWCDBa7s-8" value="- Fabriek:Autofabriek&lt;br&gt;- List&amp;lt;auto&amp;gt;:Showroom" style="text;strokeColor=none;fillColor=none;align=left;verticalAlign=top;spacingLeft=4;spacingRight=4;overflow=hidden;rotatable=0;points=[[0,0.5],[1,0.5]];portConstraint=eastwest;whiteSpace=wrap;html=1;" vertex="1" parent="RK9ggco8I1LgHWCDBa7s-7">
          <mxGeometry y="26" width="280" height="34" as="geometry" />
        </mxCell>
        <mxCell id="RK9ggco8I1LgHWCDBa7s-9" value="" style="line;strokeWidth=1;fillColor=none;align=left;verticalAlign=middle;spacingTop=-1;spacingLeft=3;spacingRight=3;rotatable=0;labelPosition=right;points=[];portConstraint=eastwest;strokeColor=inherit;" vertex="1" parent="RK9ggco8I1LgHWCDBa7s-7">
          <mxGeometry y="60" width="280" height="8" as="geometry" />
        </mxCell>
        <mxCell id="RK9ggco8I1LgHWCDBa7s-10" value="+bestel(Autospec spec,Betaling betaling):Auto&lt;br&gt;+bestel(String model,Betaling betaling):Auto" style="text;strokeColor=none;fillColor=none;align=left;verticalAlign=top;spacingLeft=4;spacingRight=4;overflow=hidden;rotatable=0;points=[[0,0.5],[1,0.5]];portConstraint=eastwest;whiteSpace=wrap;html=1;" vertex="1" parent="RK9ggco8I1LgHWCDBa7s-7">
          <mxGeometry y="68" width="280" height="60" as="geometry" />
        </mxCell>
        <mxCell id="RK9ggco8I1LgHWCDBa7s-11" value="" style="endArrow=diamondThin;endFill=0;endSize=24;html=1;rounded=0;exitX=0;exitY=0.25;exitDx=0;exitDy=0;entryX=1.026;entryY=0.962;entryDx=0;entryDy=0;entryPerimeter=0;" edge="1" parent="1" source="iYOvaxKM5K5zUqsuVqts-61" target="RK9ggco8I1LgHWCDBa7s-8">
          <mxGeometry width="160" relative="1" as="geometry">
            <mxPoint x="40" y="290" as="sourcePoint" />
            <mxPoint x="200" y="290" as="targetPoint" />
          </mxGeometry>
        </mxCell>
        <mxCell id="RK9ggco8I1LgHWCDBa7s-12" value="1" style="edgeLabel;html=1;align=center;verticalAlign=middle;resizable=0;points=[];" vertex="1" connectable="0" parent="RK9ggco8I1LgHWCDBa7s-11">
          <mxGeometry x="0.5067" y="-1" relative="1" as="geometry">
            <mxPoint x="-20" y="2" as="offset" />
          </mxGeometry>
        </mxCell>
        <mxCell id="RK9ggco8I1LgHWCDBa7s-13" value="0 ...--&amp;gt;" style="edgeLabel;html=1;align=center;verticalAlign=middle;resizable=0;points=[];" vertex="1" connectable="0" parent="RK9ggco8I1LgHWCDBa7s-11">
          <mxGeometry x="-0.8273" y="1" relative="1" as="geometry">
            <mxPoint x="-8" y="-11" as="offset" />
          </mxGeometry>
        </mxCell>
        <mxCell id="RK9ggco8I1LgHWCDBa7s-14" value="Client" style="swimlane;fontStyle=1;align=center;verticalAlign=top;childLayout=stackLayout;horizontal=1;startSize=26;horizontalStack=0;resizeParent=1;resizeParentMax=0;resizeLast=0;collapsible=1;marginBottom=0;whiteSpace=wrap;html=1;" vertex="1" parent="1">
          <mxGeometry x="-710" y="123" width="160" height="86" as="geometry" />
        </mxCell>
        <mxCell id="RK9ggco8I1LgHWCDBa7s-15" value="+ field: type" style="text;strokeColor=none;fillColor=none;align=left;verticalAlign=top;spacingLeft=4;spacingRight=4;overflow=hidden;rotatable=0;points=[[0,0.5],[1,0.5]];portConstraint=eastwest;whiteSpace=wrap;html=1;" vertex="1" parent="RK9ggco8I1LgHWCDBa7s-14">
          <mxGeometry y="26" width="160" height="26" as="geometry" />
        </mxCell>
        <mxCell id="RK9ggco8I1LgHWCDBa7s-16" value="" style="line;strokeWidth=1;fillColor=none;align=left;verticalAlign=middle;spacingTop=-1;spacingLeft=3;spacingRight=3;rotatable=0;labelPosition=right;points=[];portConstraint=eastwest;strokeColor=inherit;" vertex="1" parent="RK9ggco8I1LgHWCDBa7s-14">
          <mxGeometry y="52" width="160" height="8" as="geometry" />
        </mxCell>
        <mxCell id="RK9ggco8I1LgHWCDBa7s-17" value="+ method(type): type" style="text;strokeColor=none;fillColor=none;align=left;verticalAlign=top;spacingLeft=4;spacingRight=4;overflow=hidden;rotatable=0;points=[[0,0.5],[1,0.5]];portConstraint=eastwest;whiteSpace=wrap;html=1;" vertex="1" parent="RK9ggco8I1LgHWCDBa7s-14">
          <mxGeometry y="60" width="160" height="26" as="geometry" />
        </mxCell>
        <mxCell id="RK9ggco8I1LgHWCDBa7s-18" value="Vraagt" style="endArrow=open;endSize=12;dashed=1;html=1;rounded=0;exitX=1;exitY=0.5;exitDx=0;exitDy=0;entryX=0;entryY=0.5;entryDx=0;entryDy=0;" edge="1" parent="1" source="RK9ggco8I1LgHWCDBa7s-15" target="RK9ggco8I1LgHWCDBa7s-8">
          <mxGeometry width="160" relative="1" as="geometry">
            <mxPoint x="40" y="290" as="sourcePoint" />
            <mxPoint x="200" y="290" as="targetPoint" />
          </mxGeometry>
        </mxCell>
      </root>
    </mxGraphModel>
  </diagram>
</mxfile>